<?xml version="1.0" encoding="UTF-8" standalone="no"?>
<!-- Created with Inkscape (http://www.inkscape.org/) -->

<svg
   width="210mm"
   height="297mm"
   viewBox="0 0 210 297"
   version="1.1"
   id="svg1"
   inkscape:version="1.3 (0e150ed6c4, 2023-07-21)"
   sodipodi:docname="color_palette.svg"
   xml:space="preserve"
   xmlns:inkscape="http://www.inkscape.org/namespaces/inkscape"
   xmlns:sodipodi="http://sodipodi.sourceforge.net/DTD/sodipodi-0.dtd"
   xmlns="http://www.w3.org/2000/svg"
   xmlns:svg="http://www.w3.org/2000/svg"><sodipodi:namedview
     id="namedview1"
     pagecolor="#ffffff"
     bordercolor="#666666"
     borderopacity="1.0"
     inkscape:showpageshadow="2"
     inkscape:pageopacity="0.0"
     inkscape:pagecheckerboard="0"
     inkscape:deskcolor="#d1d1d1"
     inkscape:document-units="mm"
     inkscape:zoom="0.733172"
     inkscape:cx="390.76779"
     inkscape:cy="584.44676"
     inkscape:window-width="1920"
     inkscape:window-height="1017"
     inkscape:window-x="-8"
     inkscape:window-y="-8"
     inkscape:window-maximized="1"
     inkscape:current-layer="layer1" /><defs
     id="defs1" /><g
     inkscape:label="Ebene 1"
     inkscape:groupmode="layer"
     id="layer1"><text
       xml:space="preserve"
       style="font-style:italic;font-size:3.88056px;line-height:1.25;font-family:Monospace;-inkscape-font-specification:'Monospace Italic';text-align:end;text-anchor:end;stroke-width:0.264583"
       x="193.38971"
       y="172.21162"
       id="text1"><tspan
         sodipodi:role="line"
         id="tspan1"
         style="font-style:normal;font-variant:normal;font-weight:normal;font-stretch:normal;font-family:Monospace;-inkscape-font-specification:Monospace;stroke-width:0.264583"
         x="193.38971"
         y="172.21162">100</tspan></text><text
       xml:space="preserve"
       style="font-style:italic;font-size:3.88056px;line-height:1.25;font-family:Monospace;-inkscape-font-specification:'Monospace Italic';text-align:end;text-anchor:end;stroke-width:0.264583"
       x="33.111126"
       y="195.35878"
       id="text1-76"><tspan
         sodipodi:role="line"
         id="tspan1-6"
         style="font-style:normal;font-variant:normal;font-weight:normal;font-stretch:normal;font-family:Monospace;-inkscape-font-specification:Monospace;stroke-width:0.264583"
         x="33.111126"
         y="195.35878">Website</tspan></text><text
       xml:space="preserve"
       style="font-style:italic;font-size:3.88056px;line-height:1.25;font-family:Monospace;-inkscape-font-specification:'Monospace Italic';text-align:end;text-anchor:end;stroke-width:0.264583"
       x="193.49771"
       y="155.69026"
       id="text1-7"><tspan
         sodipodi:role="line"
         id="tspan1-2"
         style="font-style:normal;font-variant:normal;font-weight:normal;font-stretch:normal;font-family:Monospace;-inkscape-font-specification:Monospace;stroke-width:0.264583"
         x="193.49771"
         y="155.69026">200</tspan></text><text
       xml:space="preserve"
       style="font-style:italic;font-size:3.88056px;line-height:1.25;font-family:Monospace;-inkscape-font-specification:'Monospace Italic';text-align:end;text-anchor:end;stroke-width:0.264583"
       x="193.45224"
       y="139.16891"
       id="text1-70"><tspan
         sodipodi:role="line"
         id="tspan1-5"
         style="font-style:normal;font-variant:normal;font-weight:normal;font-stretch:normal;font-family:Monospace;-inkscape-font-specification:Monospace;stroke-width:0.264583"
         x="193.45224"
         y="139.16891">300</tspan></text><text
       xml:space="preserve"
       style="font-style:italic;font-size:3.88056px;line-height:1.25;font-family:Monospace;-inkscape-font-specification:'Monospace Italic';text-align:end;text-anchor:end;stroke-width:0.264583"
       x="193.41623"
       y="122.64756"
       id="text1-4"><tspan
         sodipodi:role="line"
         id="tspan1-4"
         style="font-style:normal;font-variant:normal;font-weight:normal;font-stretch:normal;font-family:Monospace;-inkscape-font-specification:Monospace;stroke-width:0.264583"
         x="193.41623"
         y="122.64756">400</tspan></text><text
       xml:space="preserve"
       style="font-style:italic;font-size:3.88056px;line-height:1.25;font-family:Monospace;-inkscape-font-specification:'Monospace Italic';text-align:end;text-anchor:end;stroke-width:0.264583"
       x="193.45035"
       y="106.1262"
       id="text1-8"><tspan
         sodipodi:role="line"
         id="tspan1-9"
         style="font-style:normal;font-variant:normal;font-weight:normal;font-stretch:normal;font-family:Monospace;-inkscape-font-specification:Monospace;stroke-width:0.264583"
         x="193.45035"
         y="106.1262">500</tspan></text><text
       xml:space="preserve"
       style="font-style:italic;font-size:3.88056px;line-height:1.25;font-family:Monospace;-inkscape-font-specification:'Monospace Italic';text-align:end;text-anchor:end;stroke-width:0.264583"
       x="193.30255"
       y="89.604858"
       id="text1-86"><tspan
         sodipodi:role="line"
         id="tspan1-90"
         style="font-style:normal;font-variant:normal;font-weight:normal;font-stretch:normal;font-family:Monospace;-inkscape-font-specification:Monospace;stroke-width:0.264583"
         x="193.30255"
         y="89.604858">600</tspan></text><text
       xml:space="preserve"
       style="font-style:italic;font-size:3.88056px;line-height:1.25;font-family:Monospace;-inkscape-font-specification:'Monospace Italic';text-align:end;text-anchor:end;stroke-width:0.264583"
       x="193.42192"
       y="73.083504"
       id="text1-2"><tspan
         sodipodi:role="line"
         id="tspan1-7"
         style="font-style:normal;font-variant:normal;font-weight:normal;font-stretch:normal;font-family:Monospace;-inkscape-font-specification:Monospace;stroke-width:0.264583"
         x="193.42192"
         y="73.083504">700</tspan></text><text
       xml:space="preserve"
       style="font-style:italic;font-size:3.88056px;line-height:1.25;font-family:Monospace;-inkscape-font-specification:'Monospace Italic';text-align:end;text-anchor:end;stroke-width:0.264583"
       x="193.38402"
       y="56.562141"
       id="text1-6"><tspan
         sodipodi:role="line"
         id="tspan1-3"
         style="font-style:normal;font-variant:normal;font-weight:normal;font-stretch:normal;font-family:Monospace;-inkscape-font-specification:Monospace;stroke-width:0.264583"
         x="193.38402"
         y="56.562141">800</tspan></text><text
       xml:space="preserve"
       style="font-style:italic;font-size:3.88056px;line-height:1.25;font-family:Monospace;-inkscape-font-specification:'Monospace Italic';text-align:end;text-anchor:end;stroke-width:0.264583"
       x="193.30066"
       y="40.040783"
       id="text1-1"><tspan
         sodipodi:role="line"
         id="tspan1-47"
         style="font-style:normal;font-variant:normal;font-weight:normal;font-stretch:normal;font-family:Monospace;-inkscape-font-specification:Monospace;stroke-width:0.264583"
         x="193.30066"
         y="40.040783">900</tspan></text><rect
       style="fill:#257cda;fill-opacity:1;stroke:#000000;stroke-width:0.1;stroke-dasharray:none"
       id="rect1"
       width="14.735417"
       height="14.735417"
       x="-112.30492"
       y="-93.447716"
       transform="matrix(0,-1,-1,0,0,0)" /><rect
       style="fill:#1d61a9;fill-opacity:1;stroke:#000000;stroke-width:0.1;stroke-dasharray:none"
       id="rect1-7"
       width="14.735417"
       height="14.735417"
       x="-95.783569"
       y="-93.447716"
       transform="matrix(0,-1,-1,0,0,0)" /><rect
       style="fill:#154579;fill-opacity:1;stroke:#000000;stroke-width:0.1;stroke-dasharray:none"
       id="rect1-1"
       width="14.735417"
       height="14.735417"
       x="-79.262207"
       y="-93.447716"
       transform="matrix(0,-1,-1,0,0,0)" /><rect
       style="fill:#0c2949;fill-opacity:1;stroke:#000000;stroke-width:0.1;stroke-dasharray:none"
       id="rect1-3"
       width="14.735417"
       height="14.735417"
       x="-62.74086"
       y="-93.447716"
       transform="matrix(0,-1,-1,0,0,0)" /><rect
       style="fill:#040e18;fill-opacity:1;stroke:#000000;stroke-width:0.1;stroke-dasharray:none"
       id="rect1-0"
       width="14.735417"
       height="14.735417"
       x="-46.219501"
       y="-93.447716"
       transform="matrix(0,-1,-1,0,0,0)" /><rect
       style="fill:#5699e2;fill-opacity:1;stroke:#000000;stroke-width:0.1;stroke-dasharray:none"
       id="rect1-18"
       width="14.735417"
       height="14.735417"
       x="-128.82628"
       y="-93.447716"
       transform="matrix(0,-1,-1,0,0,0)" /><rect
       style="fill:#86b6ea;fill-opacity:1;stroke:#000000;stroke-width:0.1;stroke-dasharray:none"
       id="rect1-10"
       width="14.735417"
       height="14.735417"
       x="-145.34763"
       y="-93.447716"
       transform="matrix(0,-1,-1,0,0,0)" /><rect
       style="fill:#b6d3f3;fill-opacity:1;stroke:#000000;stroke-width:0.1;stroke-dasharray:none"
       id="rect1-10-6"
       width="14.735417"
       height="14.735417"
       x="-161.86899"
       y="-93.447716"
       transform="matrix(0,-1,-1,0,0,0)" /><rect
       style="fill:#e7f0fb;fill-opacity:1;stroke:#000000;stroke-width:0.1;stroke-dasharray:none"
       id="rect1-10-8"
       width="14.735417"
       height="14.735417"
       x="-178.39034"
       y="-93.447716"
       transform="matrix(0,-1,-1,0,0,0)" /><rect
       style="fill:#be416b;fill-opacity:1;stroke:#000000;stroke-width:0.1;stroke-dasharray:none"
       id="rect1-01"
       width="14.735417"
       height="14.735417"
       x="-112.30492"
       y="-115.08237"
       transform="matrix(0,-1,-1,0,0,0)" /><rect
       style="fill:#943353;fill-opacity:1;stroke:#000000;stroke-width:0.1;stroke-dasharray:none"
       id="rect1-7-0"
       width="14.735417"
       height="14.735417"
       x="-95.783569"
       y="-115.08237"
       transform="matrix(0,-1,-1,0,0,0)" /><rect
       style="fill:#69243b;fill-opacity:1;stroke:#000000;stroke-width:0.1;stroke-dasharray:none"
       id="rect1-1-8"
       width="14.735417"
       height="14.735417"
       x="-79.262207"
       y="-115.08237"
       transform="matrix(0,-1,-1,0,0,0)" /><rect
       style="fill:#3f1624;fill-opacity:1;stroke:#000000;stroke-width:0.1;stroke-dasharray:none"
       id="rect1-3-0"
       width="14.735417"
       height="14.735417"
       x="-62.74086"
       y="-115.08237"
       transform="matrix(0,-1,-1,0,0,0)" /><rect
       style="fill:#15070c;fill-opacity:1;stroke:#000000;stroke-width:0.1;stroke-dasharray:none"
       id="rect1-0-3"
       width="14.735417"
       height="14.735417"
       x="-46.219501"
       y="-115.08237"
       transform="matrix(0,-1,-1,0,0,0)" /><rect
       style="fill:#cc6b8c;fill-opacity:1;stroke:#000000;stroke-width:0.1;stroke-dasharray:none"
       id="rect1-18-5"
       width="14.735417"
       height="14.735417"
       x="-128.82628"
       y="-115.08237"
       transform="matrix(0,-1,-1,0,0,0)" /><rect
       style="fill:#db96ad;fill-opacity:1;stroke:#000000;stroke-width:0.1;stroke-dasharray:none"
       id="rect1-10-9"
       width="14.735417"
       height="14.735417"
       x="-145.34763"
       y="-115.08237"
       transform="matrix(0,-1,-1,0,0,0)" /><rect
       style="fill:#e9c0ce;fill-opacity:1;stroke:#000000;stroke-width:0.1;stroke-dasharray:none"
       id="rect1-10-6-8"
       width="14.735417"
       height="14.735417"
       x="-161.86899"
       y="-115.08237"
       transform="matrix(0,-1,-1,0,0,0)" /><rect
       style="fill:#f8eaef;fill-opacity:1;stroke:#000000;stroke-width:0.1;stroke-dasharray:none"
       id="rect1-10-8-0"
       width="14.735417"
       height="14.735417"
       x="-178.39034"
       y="-115.08237"
       transform="matrix(0,-1,-1,0,0,0)" /><rect
       style="fill:#7d49b6;fill-opacity:1;stroke:#000000;stroke-width:0.1;stroke-dasharray:none"
       id="rect1-01-2"
       width="14.735417"
       height="14.735417"
       x="-112.30492"
       y="-136.71703"
       transform="matrix(0,-1,-1,0,0,0)" /><rect
       style="fill:#61398d;fill-opacity:1;stroke:#000000;stroke-width:0.1;stroke-dasharray:none"
       id="rect1-7-0-4"
       width="14.735417"
       height="14.735417"
       x="-95.783569"
       y="-136.71703"
       transform="matrix(0,-1,-1,0,0,0)" /><rect
       style="fill:#452965;fill-opacity:1;stroke:#000000;stroke-width:0.1;stroke-dasharray:none"
       id="rect1-1-8-3"
       width="14.735417"
       height="14.735417"
       x="-79.262207"
       y="-136.71703"
       transform="matrix(0,-1,-1,0,0,0)" /><rect
       style="fill:#2a183d;fill-opacity:1;stroke:#000000;stroke-width:0.1;stroke-dasharray:none"
       id="rect1-3-0-7"
       width="14.735417"
       height="14.735417"
       x="-62.74086"
       y="-136.71703"
       transform="matrix(0,-1,-1,0,0,0)" /><rect
       style="fill:#0e0814;fill-opacity:1;stroke:#000000;stroke-width:0.1;stroke-dasharray:none"
       id="rect1-0-3-8"
       width="14.735417"
       height="14.735417"
       x="-46.219501"
       y="-136.71703"
       transform="matrix(0,-1,-1,0,0,0)" /><rect
       style="fill:#9a71c6;fill-opacity:1;stroke:#000000;stroke-width:0.1;stroke-dasharray:none"
       id="rect1-18-5-7"
       width="14.735417"
       height="14.735417"
       x="-128.82626"
       y="-136.71703"
       transform="matrix(0,-1,-1,0,0,0)" /><rect
       style="fill:#b79ad6;fill-opacity:1;stroke:#000000;stroke-width:0.1;stroke-dasharray:none"
       id="rect1-10-9-6"
       width="14.735417"
       height="14.735417"
       x="-145.34763"
       y="-136.71703"
       transform="matrix(0,-1,-1,0,0,0)" /><rect
       style="fill:#d4c2e7;fill-opacity:1;stroke:#000000;stroke-width:0.1;stroke-dasharray:none"
       id="rect1-10-6-8-7"
       width="14.735417"
       height="14.735417"
       x="-161.86897"
       y="-136.71703"
       transform="matrix(0,-1,-1,0,0,0)" /><rect
       style="fill:#f1ebf7;fill-opacity:1;stroke:#000000;stroke-width:0.1;stroke-dasharray:none"
       id="rect1-10-8-0-6"
       width="14.735417"
       height="14.735417"
       x="-178.39034"
       y="-136.71703"
       transform="matrix(0,-1,-1,0,0,0)" /><rect
       style="fill:#55aa8f;fill-opacity:1;stroke:#000000;stroke-width:0.1;stroke-dasharray:none"
       id="rect1-01-2-3"
       width="14.735417"
       height="14.735417"
       x="-112.30492"
       y="-71.813057"
       transform="matrix(0,-1,-1,0,0,0)" /><rect
       style="fill:#42846f;fill-opacity:1;stroke:#000000;stroke-width:0.1;stroke-dasharray:none"
       id="rect1-7-0-4-8"
       width="14.735417"
       height="14.735417"
       x="-95.783569"
       y="-71.813057"
       transform="matrix(0,-1,-1,0,0,0)" /><rect
       style="fill:#2f5e4f;fill-opacity:1;stroke:#000000;stroke-width:0.1;stroke-dasharray:none"
       id="rect1-1-8-3-8"
       width="14.735417"
       height="14.735417"
       x="-79.262207"
       y="-71.813057"
       transform="matrix(0,-1,-1,0,0,0)" /><rect
       style="fill:#1c3930;fill-opacity:1;stroke:#000000;stroke-width:0.1;stroke-dasharray:none"
       id="rect1-3-0-7-6"
       width="14.735417"
       height="14.735417"
       x="-62.74086"
       y="-71.813057"
       transform="matrix(0,-1,-1,0,0,0)" /><rect
       style="fill:#091310;fill-opacity:1;stroke:#000000;stroke-width:0.1;stroke-dasharray:none"
       id="rect1-0-3-8-3"
       width="14.735417"
       height="14.735417"
       x="-46.219501"
       y="-71.813057"
       transform="matrix(0,-1,-1,0,0,0)" /><rect
       style="fill:#7bbda8;fill-opacity:1;stroke:#000000;stroke-width:0.1;stroke-dasharray:none"
       id="rect1-18-5-7-5"
       width="14.735417"
       height="14.735417"
       x="-128.82626"
       y="-71.813057"
       transform="matrix(0,-1,-1,0,0,0)" /><rect
       style="fill:#a1d0c1;fill-opacity:1;stroke:#000000;stroke-width:0.1;stroke-dasharray:none"
       id="rect1-10-9-6-0"
       width="14.735417"
       height="14.735417"
       x="-145.34763"
       y="-71.813057"
       transform="matrix(0,-1,-1,0,0,0)" /><rect
       style="fill:#c6e3da;fill-opacity:1;stroke:#000000;stroke-width:0.1;stroke-dasharray:none"
       id="rect1-10-6-8-7-5"
       width="14.735417"
       height="14.735417"
       x="-161.86897"
       y="-71.813057"
       transform="matrix(0,-1,-1,0,0,0)" /><rect
       style="fill:#ecf6f3;fill-opacity:1;stroke:#000000;stroke-width:0.1;stroke-dasharray:none"
       id="rect1-10-8-0-6-6"
       width="14.735417"
       height="14.735417"
       x="-178.39034"
       y="-71.813057"
       transform="matrix(0,-1,-1,0,0,0)" /><rect
       style="fill:#c78a38;fill-opacity:1;stroke:#000000;stroke-width:0.1;stroke-dasharray:none"
       id="rect1-01-2-3-2"
       width="14.735417"
       height="14.735417"
       x="-112.30491"
       y="-158.35168"
       transform="matrix(0,-1,-1,0,0,0)" /><rect
       style="fill:#9b6b2c;fill-opacity:1;stroke:#000000;stroke-width:0.1;stroke-dasharray:none"
       id="rect1-7-0-4-8-4"
       width="14.735417"
       height="14.735417"
       x="-95.783569"
       y="-158.35168"
       transform="matrix(0,-1,-1,0,0,0)" /><rect
       style="fill:#6e4c1f;fill-opacity:1;stroke:#000000;stroke-width:0.1;stroke-dasharray:none"
       id="rect1-1-8-3-8-7"
       width="14.735417"
       height="14.735417"
       x="-79.262207"
       y="-158.35168"
       transform="matrix(0,-1,-1,0,0,0)" /><rect
       style="fill:#422e13;fill-opacity:1;stroke:#000000;stroke-width:0.1;stroke-dasharray:none"
       id="rect1-3-0-7-6-5"
       width="14.735417"
       height="14.735417"
       x="-62.74086"
       y="-158.35168"
       transform="matrix(0,-1,-1,0,0,0)" /><rect
       style="fill:#160f06;fill-opacity:1;stroke:#000000;stroke-width:0.1;stroke-dasharray:none"
       id="rect1-0-3-8-3-0"
       width="14.735417"
       height="14.735417"
       x="-46.219501"
       y="-158.35168"
       transform="matrix(0,-1,-1,0,0,0)" /><rect
       style="fill:#d3a464;fill-opacity:1;stroke:#000000;stroke-width:0.1;stroke-dasharray:none"
       id="rect1-18-5-7-5-1"
       width="14.735417"
       height="14.735417"
       x="-128.82626"
       y="-158.35168"
       transform="matrix(0,-1,-1,0,0,0)" /><rect
       style="fill:#e0be90;fill-opacity:1;stroke:#000000;stroke-width:0.1;stroke-dasharray:none"
       id="rect1-10-9-6-0-7"
       width="14.735417"
       height="14.735417"
       x="-145.34763"
       y="-158.35168"
       transform="matrix(0,-1,-1,0,0,0)" /><rect
       style="fill:#ecd8bd;fill-opacity:1;stroke:#000000;stroke-width:0.1;stroke-dasharray:none"
       id="rect1-10-6-8-7-5-7"
       width="14.735417"
       height="14.735417"
       x="-161.86897"
       y="-158.35168"
       transform="matrix(0,-1,-1,0,0,0)" /><rect
       style="fill:#f9f2e9;fill-opacity:1;stroke:#000000;stroke-width:0.1;stroke-dasharray:none"
       id="rect1-10-8-0-6-6-6"
       width="14.735417"
       height="14.735417"
       x="-178.39034"
       y="-158.35168"
       transform="matrix(0,-1,-1,0,0,0)" /><rect
       style="fill:#d2c42d;fill-opacity:1;stroke:#000000;stroke-width:0.1;stroke-dasharray:none"
       id="rect1-01-2-3-2-5"
       width="14.735417"
       height="14.735417"
       x="-112.30492"
       y="-179.98633"
       transform="matrix(0,-1,-1,0,0,0)" /><rect
       style="fill:#a39823;fill-opacity:1;stroke:#000000;stroke-width:0.1;stroke-dasharray:none"
       id="rect1-7-0-4-8-4-5"
       width="14.735417"
       height="14.735417"
       x="-95.783577"
       y="-179.98633"
       transform="matrix(0,-1,-1,0,0,0)" /><rect
       style="fill:#756d19;fill-opacity:1;stroke:#000000;stroke-width:0.1;stroke-dasharray:none"
       id="rect1-1-8-3-8-7-7"
       width="14.735417"
       height="14.735417"
       x="-79.262222"
       y="-179.98633"
       transform="matrix(0,-1,-1,0,0,0)" /><rect
       style="fill:#46410f;fill-opacity:1;stroke:#000000;stroke-width:0.1;stroke-dasharray:none"
       id="rect1-3-0-7-6-5-3"
       width="14.735417"
       height="14.735417"
       x="-62.74086"
       y="-179.98633"
       transform="matrix(0,-1,-1,0,0,0)" /><rect
       style="fill:#171605;fill-opacity:1;stroke:#000000;stroke-width:0.1;stroke-dasharray:none"
       id="rect1-0-3-8-3-0-3"
       width="14.735417"
       height="14.735417"
       x="-46.219501"
       y="-179.98633"
       transform="matrix(0,-1,-1,0,0,0)" /><rect
       style="fill:#dcd15c;fill-opacity:1;stroke:#000000;stroke-width:0.1;stroke-dasharray:none"
       id="rect1-18-5-7-5-1-7"
       width="14.735417"
       height="14.735417"
       x="-128.82628"
       y="-179.98633"
       transform="matrix(0,-1,-1,0,0,0)" /><rect
       style="fill:#e6de8a;fill-opacity:1;stroke:#000000;stroke-width:0.1;stroke-dasharray:none"
       id="rect1-10-9-6-0-7-2"
       width="14.735417"
       height="14.735417"
       x="-145.34764"
       y="-179.98633"
       transform="matrix(0,-1,-1,0,0,0)" /><rect
       style="fill:#f0ebb9;fill-opacity:1;stroke:#000000;stroke-width:0.1;stroke-dasharray:none"
       id="rect1-10-6-8-7-5-7-9"
       width="14.735417"
       height="14.735417"
       x="-161.86899"
       y="-179.98633"
       transform="matrix(0,-1,-1,0,0,0)" /><rect
       style="fill:#faf8e8;fill-opacity:1;stroke:#000000;stroke-width:0.1;stroke-dasharray:none"
       id="rect1-10-8-0-6-6-6-7"
       width="14.735417"
       height="14.735417"
       x="-178.39035"
       y="-179.98633"
       transform="matrix(0,-1,-1,0,0,0)" /><rect
       style="fill:#808080;fill-opacity:1;stroke:#000000;stroke-width:0.1;stroke-dasharray:none"
       id="rect1-01-2-3-2-5-2"
       width="14.735417"
       height="14.735417"
       x="-112.30492"
       y="-50.178406"
       transform="matrix(0,-1,-1,0,0,0)" /><rect
       style="fill:#636363;fill-opacity:1;stroke:#000000;stroke-width:0.1;stroke-dasharray:none"
       id="rect1-7-0-4-8-4-5-4"
       width="14.735417"
       height="14.735417"
       x="-95.783577"
       y="-50.178406"
       transform="matrix(0,-1,-1,0,0,0)" /><rect
       style="fill:#474747;fill-opacity:1;stroke:#000000;stroke-width:0.1;stroke-dasharray:none"
       id="rect1-1-8-3-8-7-7-4"
       width="14.735417"
       height="14.735417"
       x="-79.262222"
       y="-50.178406"
       transform="matrix(0,-1,-1,0,0,0)" /><rect
       style="fill:#2a2a2a;fill-opacity:1;stroke:#000000;stroke-width:0.1;stroke-dasharray:none"
       id="rect1-3-0-7-6-5-3-7"
       width="14.735417"
       height="14.735417"
       x="-62.74086"
       y="-50.178406"
       transform="matrix(0,-1,-1,0,0,0)" /><rect
       style="fill:#0e0e0e;fill-opacity:1;stroke:#000000;stroke-width:0.1;stroke-dasharray:none"
       id="rect1-0-3-8-3-0-3-6"
       width="14.735417"
       height="14.735417"
       x="-46.219501"
       y="-50.178406"
       transform="matrix(0,-1,-1,0,0,0)" /><rect
       style="fill:#9c9c9c;fill-opacity:1;stroke:#000000;stroke-width:0.1;stroke-dasharray:none"
       id="rect1-18-5-7-5-1-7-9"
       width="14.735417"
       height="14.735417"
       x="-128.82628"
       y="-50.178406"
       transform="matrix(0,-1,-1,0,0,0)" /><rect
       style="fill:#b8b8b8;fill-opacity:1;stroke:#000000;stroke-width:0.1;stroke-dasharray:none"
       id="rect1-10-9-6-0-7-2-2"
       width="14.735417"
       height="14.735417"
       x="-145.34764"
       y="-50.178406"
       transform="matrix(0,-1,-1,0,0,0)" /><rect
       style="fill:#d4d4d4;fill-opacity:1;stroke:#000000;stroke-width:0.1;stroke-dasharray:none"
       id="rect1-10-6-8-7-5-7-9-9"
       width="14.735417"
       height="14.735417"
       x="-161.86899"
       y="-50.178406"
       transform="matrix(0,-1,-1,0,0,0)" /><rect
       style="fill:#f1f1f1;fill-opacity:1;stroke:#000000;stroke-width:0.1;stroke-dasharray:none"
       id="rect1-10-8-0-6-6-6-7-8"
       width="14.735417"
       height="14.735417"
       x="-178.39035"
       y="-50.178406"
       transform="matrix(0,-1,-1,0,0,0)" /><rect
       style="fill:#000000;fill-opacity:1;stroke:#000000;stroke-width:0.1;stroke-dasharray:none"
       id="rect1-0-3-8-3-0-3-6-8"
       width="14.735417"
       height="14.735417"
       x="-46.219501"
       y="-28.543751"
       transform="matrix(0,-1,-1,0,0,0)" /><rect
       style="fill:#ffffff;fill-opacity:1;stroke:#000000;stroke-width:0.1;stroke-dasharray:none"
       id="rect1-10-8-0-6-6-6-7-8-4"
       width="14.735417"
       height="14.735417"
       x="-178.39035"
       y="-28.543751"
       transform="matrix(0,-1,-1,0,0,0)" /><rect
       fill="#1d2a35"
       x="17.166637"
       y="198.53374"
       width="22.560884"
       height="27.894844"
       id="rect1-73"
       style="stroke:#000000;stroke-width:0.264583" /><rect
       fill="#ac3b61"
       x="39.727528"
       y="198.53374"
       width="22.560884"
       height="27.894844"
       id="rect2"
       style="stroke:#000000;stroke-width:0.264583" /><rect
       fill="#38705e"
       x="62.288403"
       y="198.53374"
       width="22.560884"
       height="27.894844"
       id="rect3"
       style="stroke:#000000;stroke-width:0.264583" /><rect
       fill="#f1f1f1"
       x="84.849297"
       y="198.53374"
       width="22.560884"
       height="27.894844"
       id="rect4"
       style="stroke:#000000;stroke-width:0.264583" /><rect
       fill="#ffffff"
       x="107.41018"
       y="198.53374"
       width="22.560884"
       height="27.894844"
       id="rect5"
       style="stroke:#000000;stroke-width:0.264583" /></g></svg>
